<svg id="Camada_1" data-name="Camada 1" xmlns="http://www.w3.org/2000/svg" viewBox="0 0 185.41 364.64"><defs><style>.cls-1{fill:#c53757;}.cls-2{fill:#ca516a;}.cls-3{fill:#b63550;}.cls-4{fill:#c8446b;}</style></defs><title>icon</title><path class="cls-1" d="M1790.89,396.17l0-9.95c3.94-.17,5.87-.3,9.62-.67q0-28.41-.07-56.83a4.78,4.78,0,0,0-4.87-4.77,216,216,0,0,1-25.14-1.1c-5.62,50-92.58,40.07-104.28-25-11.41-4.33-30-11.56-41.05-16.73a4.77,4.77,0,0,0-6.78,4.34v58.07c4.52,2.21,6.78,3.28,11.31,5.35V359.4c-4.53-2.06-6.79-3.12-11.3-5.32V559.63a412.38,412.38,0,0,0,59.21,17c.1-12.92.15-19.41.25-32.42a259.84,259.84,0,0,0,34.12,5,218.81,218.81,0,0,0,32.85.93c0-12.45,0-18.67-.07-31.08s0-18.62-.06-31a180.6,180.6,0,0,0,30-1c-.07-11.67-.1-17.5-.16-29.2a134.43,134.43,0,0,0,26.1-3.64c0-21.19-.06-37.59-.08-58.79C1796.75,395.83,1794.83,396,1790.89,396.17Zm-127.65-23c-10-3.66-15.12-6.22-25.22-10l0-10.54c10.12,4.39,15.18,6.41,25.23,10.1h0Zm32.26,10.39c-9.83-2.74-14.81-4.29-24.82-7.75V371l0-5.64c10,3.48,15,5.05,24.81,7.81h0l0,5.57Zm32.09,7.53c-9.4-1.77-14.21-2.85-23.94-5.35h0l0-10.34h0c9.72,2.53,14.52,3.62,23.91,5.42h0Zm29.35,4.18c-8.82-.82-13.36-1.42-22.64-3V382.06c9.28,1.6,13.82,2.22,22.62,3.09h0Zm27.35,1.11a198.51,198.51,0,0,1-20.88-.58h0l0-10.11a199.48,199.48,0,0,0,20.88.69h0l0,10Z" transform="translate(-1618.3 -280.68)"/><path class="cls-1" d="M1643.68,578.15a266,266,0,0,0,33.83,9.69c-.1,13.06-.15,19.57-.25,32.53a254.31,254.31,0,0,1-33.81-7.76C1643.54,599,1643.59,592,1643.68,578.15Z" transform="translate(-1618.3 -280.68)"/><path class="cls-2" d="M1778.26,585.46c11.14-2.9,16.32-4.81,25.44-9.68v29.45c-9,5.33-14.15,7.45-25.28,10.72C1778.36,603.65,1778.32,597.56,1778.26,585.46Z" transform="translate(-1618.3 -280.68)"/><path class="cls-1" d="M1777.94,515.84c11.16-1.93,16.39-3.32,25.76-7V537.2c-9.25,4.31-14.45,6-25.6,8.42C1778,533.66,1778,527.72,1777.94,515.84Z" transform="translate(-1618.3 -280.68)"/><path class="cls-3" d="M1745.47,553.58a159.31,159.31,0,0,0,30-3.59c.06,12,.09,18,.16,30.21-11.3,2.77-17.41,3.66-30.1,4.58C1745.52,572.26,1745.5,566,1745.47,553.58Z" transform="translate(-1618.3 -280.68)"/><path class="cls-3" d="M1712.16,517.24a227.38,227.38,0,0,0,32.48,1.89c0,12.42,0,18.63.07,31.08a216.3,216.3,0,0,1-32.67-.91C1712.09,536.48,1712.11,530.07,1712.16,517.24Z" transform="translate(-1618.3 -280.68)"/><path class="cls-3" d="M1744.51,457.67a194.15,194.15,0,0,0,30,.18c.06,11.72.09,17.56.16,29.25a181.92,181.92,0,0,1-30.06,1C1744.55,475.94,1744.54,469.85,1744.51,457.67Z" transform="translate(-1618.3 -280.68)"/><path class="cls-4" d="M1678.36,511.46a272.19,272.19,0,0,0,33.8,5.78c-.05,12.83-.07,19.24-.12,32.06a261.64,261.64,0,0,1-33.93-4.94C1678.21,531.22,1678.26,524.64,1678.36,511.46Z" transform="translate(-1618.3 -280.68)"/><path class="cls-3" d="M1677.63,557.32a270.57,270.57,0,0,0,33.79,5.79c0,12.82-.06,19.23-.11,32a259.93,259.93,0,0,1-33.93-4.94C1677.48,577.09,1677.53,570.5,1677.63,557.32Z" transform="translate(-1618.3 -280.68)"/><path class="cls-1" d="M1710.67,612.88a206.25,206.25,0,0,0,33-.1c0,12.57,0,18.88.06,31.54a200.51,200.51,0,0,1-33.18.59C1710.6,632.11,1710.62,625.7,1710.67,612.88Z" transform="translate(-1618.3 -280.68)"/></svg>