<svg id="Camada_1" data-name="Camada 1" xmlns="http://www.w3.org/2000/svg" viewBox="0 0 623.1 193.08"><defs><style>.cls-1{fill:#2f2972;}.cls-2{fill:#e33458;}.cls-3{fill:#e7506b;}.cls-4{fill:#d23250;}.cls-5{fill:#e6426d;}</style></defs><title>logo</title><path class="cls-1" d="M-36.2,93h15.7a1.58,1.58,0,0,1,1.6,1.6v55.7a1.44,1.44,0,0,1-1.6,1.5H-36.1a1.58,1.58,0,0,1-1.6-1.6V94.6A1.5,1.5,0,0,1-36.2,93Z" transform="translate(157 -1.26)"/><path class="cls-1" d="M46.7,115.1v35.3a1.58,1.58,0,0,1-1.6,1.6H29.3a1.58,1.58,0,0,1-1.6-1.6V120.2c0-6.7-4.2-10.1-9.4-10.1-5.5,0-9.4,3.6-9.4,10.1v30.1a1.58,1.58,0,0,1-1.6,1.6H-8.4a1.58,1.58,0,0,1-1.6-1.6V94.6A1.58,1.58,0,0,1-8.4,93H7.3a1.58,1.58,0,0,1,1.6,1.6v3.9c3.4-3.8,8.5-6.9,16.2-6.9C39.7,91.6,46.7,103.2,46.7,115.1Z" transform="translate(157 -1.26)"/><path class="cls-1" d="M114.3,93a1.58,1.58,0,0,1,1.6,1.6v52.2c0,16.7-12.1,28.6-33,28.6-11.9,0-22.5-4.3-27.6-10.9a1.58,1.58,0,0,1,.3-2.2.35.35,0,0,1,.2-.1l11.4-6.8a1.65,1.65,0,0,1,2,.3c2.3,2.4,7,4.5,12.9,4.5,11.5,0,15-6.3,15-15.5V142c-3.3,4.2-8.4,7.2-16.5,7.2-18,0-28.3-13.4-28.3-28.8S62.5,91.6,80.6,91.6c8,0,13.3,3.3,16.5,7.8V94.6A1.58,1.58,0,0,1,98.7,93ZM96.4,120.4c0-7.8-5.5-12.5-12.6-12.5-7.8,0-12.6,5.3-12.6,12.5S76.1,133,83.9,133C90.9,133,96.4,128.2,96.4,120.4Z" transform="translate(157 -1.26)"/><path class="cls-1" d="M162.4,93.3V110a1.58,1.58,0,0,1-1.6,1.6h-.2c-15.1-1.6-16.8,7.6-16.8,17.1v21.6a1.58,1.58,0,0,1-1.6,1.6H126.6a1.58,1.58,0,0,1-1.6-1.6V94.6a1.58,1.58,0,0,1,1.6-1.6h15.6a1.58,1.58,0,0,1,1.6,1.6V102a22.81,22.81,0,0,1,16.8-10.3,1.53,1.53,0,0,1,1.7,1.5C162.4,93.2,162.4,93.2,162.4,93.3Z" transform="translate(157 -1.26)"/><path class="cls-1" d="M222.7,128.2H184a1.58,1.58,0,0,0-1.6,1.6,1.85,1.85,0,0,0,.2.7c2.5,5.3,7.6,7.7,13.9,7.7a16,16,0,0,0,11.2-4.2,1.66,1.66,0,0,1,2-.2l10.6,6.3a1.54,1.54,0,0,1,.5,2.2l-.1.1c-5,6.5-13.6,11-24.3,11-19.9,0-33.1-12.5-33.1-30.9,0-17.4,13.6-30.9,30.4-30.9,17.1,0,32.2,11.4,30.6,35.1A1.5,1.5,0,0,1,222.7,128.2Zm-17.6-11.3a1.58,1.58,0,0,0,1.6-1.6.9.9,0,0,0-.1-.5c-1.9-5.4-6.4-7.9-12.2-7.9a12.53,12.53,0,0,0-11.9,7.8,1.71,1.71,0,0,0,.9,2.1,1.27,1.27,0,0,0,.6.1Z" transform="translate(157 -1.26)"/><path class="cls-1" d="M277.6,133.7c0,12.4-9.2,19.8-26.4,19.8-11.2,0-22-3.4-25.2-12.6a1.61,1.61,0,0,1,1-2l14.1-4.4a1.64,1.64,0,0,1,2,.8c1.1,1.9,3.4,3.5,7.8,3.5,4,0,7.1-1.2,7.1-4.2,0-4.1-6.2-3.8-13.1-5.4-11.3-2.5-17.4-6.6-17.4-18.1,0-12.3,10.6-19.4,25.3-19.4,9.5,0,18.9,4.4,22.1,13.3a1.63,1.63,0,0,1-1,2.1h-.1L261,110.2a1.56,1.56,0,0,1-1.8-.9c-1.1-2-3.3-3.1-6.3-3.1-3.7,0-7.2,1-7.2,4.3,0,3.8,6.4,4.1,11,5C271.6,118.6,277.6,122.9,277.6,133.7Z" transform="translate(157 -1.26)"/><path class="cls-1" d="M330.8,133.7c0,12.4-9.2,19.8-26.4,19.8-11.2,0-22-3.4-25.2-12.5a1.68,1.68,0,0,1,1-2.1h0l14.1-4.4a1.67,1.67,0,0,1,1.9.8c1.1,1.9,3.4,3.6,7.9,3.6,4,0,7.1-1.2,7.1-4.2,0-4.1-6.2-3.8-13.1-5.4-11.3-2.5-17.4-6.6-17.4-18.1,0-12.3,10.6-19.4,25.3-19.4,9.5,0,18.9,4.4,22.1,13.2a1.6,1.6,0,0,1-1,2.1c-.1,0-.1,0-.2.1l-12.7,3.1a1.68,1.68,0,0,1-1.9-.9c-1.1-2-3.3-3-6.3-3-3.7,0-7.2,1-7.2,4.3,0,3.8,6.4,4.1,11,5C324.9,118.6,330.8,122.9,330.8,133.7Z" transform="translate(157 -1.26)"/><path class="cls-1" d="M448,133.7c0,12.4-9.2,19.8-26.4,19.8-11.2,0-22-3.4-25.2-12.5a1.68,1.68,0,0,1,1-2.1h0l14.1-4.4a1.67,1.67,0,0,1,1.9.8c1.1,1.9,3.4,3.6,7.9,3.6,3.9,0,7.1-1.2,7.1-4.2,0-4.1-6.2-3.8-13.1-5.4-11.3-2.5-17.4-6.6-17.4-18.1,0-12.3,10.6-19.4,25.3-19.4,9.5,0,18.9,4.4,22.1,13.2a1.6,1.6,0,0,1-1,2.1c-.1,0-.1,0-.2.1l-12.7,3.1a1.68,1.68,0,0,1-1.9-.9c-1.1-2-3.3-3-6.3-3-3.7,0-7.2,1-7.2,4.3,0,3.8,6.4,4.1,11,5C442.1,118.6,448,122.9,448,133.7Z" transform="translate(157 -1.26)"/><path class="cls-1" d="M395.5,122.5c0,17.4-13.1,30.9-31.6,30.9s-31.6-13.4-31.6-30.9,13.3-30.9,31.6-30.9S395.5,105,395.5,122.5Zm-19,0a12.61,12.61,0,0,0-25.2-.8v.7a12.55,12.55,0,0,0,13,12.2A12.23,12.23,0,0,0,376.5,122.5Z" transform="translate(157 -1.26)"/><path class="cls-2" d="M46.7,66.7c0,12.4-9.2,19.8-26.4,19.8C9.1,86.5-1.7,83.1-4.9,74a1.68,1.68,0,0,1,1-2.1h0l14.1-4.4a1.67,1.67,0,0,1,1.9.8c1.1,1.9,3.4,3.6,7.9,3.6,4,0,7.1-1.2,7.1-4.2,0-4.1-6.2-3.8-13.1-5.4C2.7,59.7-3.4,55.7-3.4,44.2c0-12.3,10.6-19.4,25.3-19.4,9.5,0,18.9,4.4,22.1,13.2a1.6,1.6,0,0,1-1,2.1c-.1,0-.1,0-.2.1L30.1,43.3a1.68,1.68,0,0,1-1.9-.9c-1.1-2-3.3-3-6.3-3-3.7,0-7.2,1-7.2,4.3,0,3.8,6.4,4.1,11,5C40.8,51.7,46.7,56,46.7,66.7Z" transform="translate(157 -1.26)"/><path class="cls-1" d="M-38,78.6a9.93,9.93,0,0,1,7.7-11.7,9.93,9.93,0,0,1,11.7,7.7,9.93,9.93,0,0,1-7.7,11.7,8.13,8.13,0,0,1-3.8,0A9.69,9.69,0,0,1-38,78.6Z" transform="translate(157 -1.26)"/><path class="cls-2" d="M116.4,56.9c0,17.4-13.1,30.9-31.6,30.9S53.2,74.3,53.2,56.9,66.4,26,84.8,26,116.4,39.3,116.4,56.9Zm-18.9,0a12.6,12.6,0,1,0-25.2,0h0a12.6,12.6,0,1,0,25.2,0Z" transform="translate(157 -1.26)"/><path class="cls-2" d="M-65.7,62.5V57.2c2.1-.1,3.1-.2,5.1-.4V26.7a2.56,2.56,0,0,0-2.6-2.5h0a98.68,98.68,0,0,1-13.3-.6c-3,26.4-49,21.2-55.2-13.2-6-2.3-15.8-6.1-21.7-8.9a2.61,2.61,0,0,0-3.4,1.2A8.32,8.32,0,0,0-157,4V34.7c2.4,1.2,3.6,1.7,6,2.8v5.6c-2.4-1.1-3.6-1.7-6-2.8V149a214.82,214.82,0,0,0,31.3,9c.1-6.8.1-10.3.1-17.1a120.1,120.1,0,0,0,18,2.6,112.44,112.44,0,0,0,17.4.5V111.1a93.94,93.94,0,0,0,15.9-.5c0-6.2,0-9.3-.1-15.5a70.57,70.57,0,0,0,13.8-1.9V62.1A42.13,42.13,0,0,1-65.7,62.5Zm-67.5-12.1c-5.3-1.9-8-3.3-13.3-5.3V39.5c5.4,2.3,8,3.4,13.3,5.3h0Zm17,5.5c-5.2-1.5-7.8-2.3-13.1-4.1V46.2c5.3,1.8,7.9,2.7,13.1,4.1h0v5.6Zm17,4c-5-.9-7.5-1.5-12.7-2.8h0V51.6h0c5.1,1.3,7.7,1.9,12.7,2.9h0Zm15.6,2.2c-4.7-.4-7.1-.8-12-1.6V55.1c4.9.8,7.3,1.2,12,1.6h0Zm14.4.6a101,101,0,0,1-11-.3h0V57c3.7.3,7.3.4,11,.4h0Z" transform="translate(157 -1.26)"/><path class="cls-2" d="M-143.6,158.8a135.76,135.76,0,0,0,17.9,5.1c-.1,6.9-.1,10.4-.1,17.2a140.28,140.28,0,0,1-17.9-4.1C-143.7,169.8-143.6,166.2-143.6,158.8Z" transform="translate(157 -1.26)"/><path class="cls-3" d="M-72.4,162.7a55.16,55.16,0,0,0,13.5-5.1v15.6a51,51,0,0,1-13.4,5.7C-72.3,172.3-72.4,169.1-72.4,162.7Z" transform="translate(157 -1.26)"/><path class="cls-2" d="M-72.5,125.9a58.29,58.29,0,0,0,13.6-3.7v15a55,55,0,0,1-13.5,4.5C-72.5,135.3-72.5,132.1-72.5,125.9Z" transform="translate(157 -1.26)"/><path class="cls-4" d="M-89.7,145.8a85.25,85.25,0,0,0,15.9-1.9c0,6.4,0,9.5.1,16a84.8,84.8,0,0,1-15.9,2.4C-89.7,155.7-89.7,152.4-89.7,145.8Z" transform="translate(157 -1.26)"/><path class="cls-4" d="M-107.4,126.6a123.15,123.15,0,0,0,17.2,1V144a111.16,111.16,0,0,1-17.3-.5C-107.4,136.8-107.4,133.4-107.4,126.6Z" transform="translate(157 -1.26)"/><path class="cls-4" d="M-90.2,95.1a104.25,104.25,0,0,0,15.8.1c0,6.2.1,9.3.1,15.5a93.94,93.94,0,0,1-15.9.5Z" transform="translate(157 -1.26)"/><path class="cls-5" d="M-125.2,123.5a155.77,155.77,0,0,0,17.9,3.1c0,6.8,0,10.2-.1,17a134.55,134.55,0,0,1-18-2.6C-125.3,134-125.3,130.5-125.2,123.5Z" transform="translate(157 -1.26)"/><path class="cls-4" d="M-125.6,147.8a136.46,136.46,0,0,0,17.9,3c0,6.8,0,10.2-.1,17a134.55,134.55,0,0,1-18-2.6C-125.7,158.2-125.7,154.8-125.6,147.8Z" transform="translate(157 -1.26)"/><path class="cls-2" d="M-108.1,177.2a113.6,113.6,0,0,0,17.5-.1v16.7a103.31,103.31,0,0,1-17.6.3C-108.2,187.4-108.2,184-108.1,177.2Z" transform="translate(157 -1.26)"/><rect class="cls-2" x="244.7" y="2.54" width="17.3" height="17.4"/><path class="cls-1" d="M459.4,149.6l-1.4-3h-1.3v3h-2.1v-9.1h3.3a3,3,0,0,1,3.3,3.1,2.69,2.69,0,0,1-1.3,2.4l1.8,3.5h-2.3Zm-2.7-5h1.2c.6,0,1.2-.3,1.2-1s-.5-1-1.2-1h-1.2Z" transform="translate(157 -1.26)"/><path class="cls-1" d="M450.3,145a8.1,8.1,0,0,1,7.9-8.4,8.23,8.23,0,0,1,7.9,8.4,7.91,7.91,0,1,1-15.8,0Zm1.6,0a6.31,6.31,0,1,0,6.3-6.7A6.5,6.5,0,0,0,451.9,145Z" transform="translate(157 -1.26)"/></svg>